<svg viewBox="0 0 406.639 406.639" xmlns="http://www.w3.org/2000/svg"><path d="m282.443 357.792h-43.217c-1.561 0-2.836-1.273-2.836-2.834v-9.518c0-1.56-1.275-2.834-2.834-2.834h-60.474c-1.56 0-2.835 1.274-2.835 2.834v9.518c0 1.561-1.275 2.834-2.835 2.834h-43.219c-1.56 0-2.835 1.275-2.835 2.834v12.17c0 1.559 1.275 2.834 2.835 2.834h158.248c1.561 0 2.836-1.275 2.836-2.834v-12.17c0-1.559-1.275-2.834-2.834-2.834z"/><path d="m383.855 31.009h-361.072c-12.563 0-22.783 10.221-22.783 22.784v250.921c0 12.562 10.221 22.783 22.783 22.783h361.073c12.562 0 22.783-10.221 22.783-22.783v-250.92c0-12.564-10.221-22.785-22.784-22.785zm-180.537 276.816c-5.668 0-10.264-4.596-10.264-10.266s4.596-10.266 10.264-10.266c5.67 0 10.268 4.596 10.268 10.266s-4.598 10.266-10.268 10.266zm186.078-31.582h-372.154v-222.449c0-3.003 2.537-5.54 5.541-5.54h361.073c3.002 0 5.541 2.537 5.541 5.54v222.449z"/><path d="m236.299 166.933-48.565-31.637c-1.441-.854-2.619-.182-2.619 1.493v63.392c0 1.674 1.178 2.346 2.619 1.493l48.565-31.637c1.439-.854 1.439-2.251 0-3.104z"/><path d="m203.319 101.757c-36.794 0-66.729 29.934-66.729 66.728 0 36.793 29.935 66.728 66.729 66.728s66.728-29.935 66.728-66.728c0-36.794-29.934-66.728-66.728-66.728zm0 119.456c-29.074 0-52.729-23.653-52.729-52.728s23.654-52.728 52.729-52.728c29.076 0 52.728 23.654 52.728 52.728s-23.654 52.728-52.728 52.728z"/></svg>
